<svg xmlns="http://www.w3.org/2000/svg"
    xmlns:xlink="http://www.w3.org/1999/xlink" data-name="Layer 1" width="766.06693" height="517" viewBox="0 0 766.06693 517">
    <path d="M698.4626,579.811h-215a5.00573,5.00573,0,0,1-5-5v-133a5.00573,5.00573,0,0,1,5-5h215a5.00573,5.00573,0,0,1,5,5v133A5.00573,5.00573,0,0,1,698.4626,579.811Z" transform="translate(-216.96654 -191.5)" fill="#fff"/>
    <path d="M698.4626,579.811h-215a5.00573,5.00573,0,0,1-5-5v-133a5.00573,5.00573,0,0,1,5-5h215a5.00573,5.00573,0,0,1,5,5v133A5.00573,5.00573,0,0,1,698.4626,579.811Zm-215-141a3.00328,3.00328,0,0,0-3,3v133a3.00328,3.00328,0,0,0,3,3h215a3.00328,3.00328,0,0,0,3-3v-133a3.00328,3.00328,0,0,0-3-3Z" transform="translate(-216.96654 -191.5)" fill="#3f3d56"/>
    <path d="M655.9626,497.311h-130a4.5,4.5,0,0,1,0-9h130a4.5,4.5,0,0,1,0,9Z" transform="translate(-216.96654 -191.5)" fill="#ccc"/>
    <path d="M655.9626,528.311h-130a4.5,4.5,0,0,1,0-9h130a4.5,4.5,0,0,1,0,9Z" transform="translate(-216.96654 -191.5)" fill="#ccc"/>
</svg>