<svg xmlns="http://www.w3.org/2000/svg"
    xmlns:xlink="http://www.w3.org/1999/xlink" data-name="Layer 1" width="766.06693" height="517" viewBox="0 0 766.06693 517">
    <path d="M978.03346,618.5h-379a5.00573,5.00573,0,0,1-5-5v-417a5.00573,5.00573,0,0,1,5-5h379a5.00573,5.00573,0,0,1,5,5v417A5.00573,5.00573,0,0,1,978.03346,618.5Zm-379-425a3.00328,3.00328,0,0,0-3,3v417a3.00328,3.00328,0,0,0,3,3h379a3.00328,3.00328,0,0,0,3-3v-417a3.00328,3.00328,0,0,0-3-3Z" transform="translate(-216.96654 -191.5)" fill="#3f3d56"/>
    <path d="M762.53346,350.5h-94a5.00573,5.00573,0,0,1-5-5v-94a5.00573,5.00573,0,0,1,5-5h94a5.00573,5.00573,0,0,1,5,5v94A5.00573,5.00573,0,0,1,762.53346,350.5Zm-94-102a3.00328,3.00328,0,0,0-3,3v94a3.00328,3.00328,0,0,0,3,3h94a3.00328,3.00328,0,0,0,3-3v-94a3.00328,3.00328,0,0,0-3-3Z" transform="translate(-216.96654 -191.5)" fill="#f2f2f2"/>
    <path d="M735.53346,362h-94a4.50508,4.50508,0,0,1-4.5-4.5v-94a4.50508,4.50508,0,0,1,4.5-4.5h94a4.50507,4.50507,0,0,1,4.5,4.5v94A4.50507,4.50507,0,0,1,735.53346,362Z" transform="translate(-216.96654 -191.5)" fill="#c66600"/>
    <path d="M935.53346,408h-294a4.5,4.5,0,0,1,0-9h294a4.5,4.5,0,1,1,0,9Z" transform="translate(-216.96654 -191.5)" fill="#ccc"/>
    <path d="M864.53346,439h-223a4.5,4.5,0,0,1,0-9h223a4.5,4.5,0,1,1,0,9Z" transform="translate(-216.96654 -191.5)" fill="#ccc"/>
    <path d="M934.53346,294h-130a4.5,4.5,0,0,1,0-9h130a4.5,4.5,0,1,1,0,9Z" transform="translate(-216.96654 -191.5)" fill="#ccc"/>
    <path d="M902.08986,325h-97.5564a4.5,4.5,0,0,1,0-9h97.5564a4.5,4.5,0,0,1,0,9Z" transform="translate(-216.96654 -191.5)" fill="#ccc"/>
    <path d="M935.53346,470h-294a4.5,4.5,0,0,1,0-9h294a4.5,4.5,0,1,1,0,9Z" transform="translate(-216.96654 -191.5)" fill="#ccc"/>
    <path d="M864.53346,501h-223a4.5,4.5,0,0,1,0-9h223a4.5,4.5,0,1,1,0,9Z" transform="translate(-216.96654 -191.5)" fill="#ccc"/>
    <path d="M935.53346,532h-294a4.5,4.5,0,0,1,0-9h294a4.5,4.5,0,1,1,0,9Z" transform="translate(-216.96654 -191.5)" fill="#ccc"/>
    <path d="M935.53346,563h-294a4.5,4.5,0,0,1,0-9h294a4.5,4.5,0,1,1,0,9Z" transform="translate(-216.96654 -191.5)" fill="#ccc"/>
</svg>