<svg xmlns="http://www.w3.org/2000/svg" data-name="Layer 1" width="848.28391" height="615.2339" viewBox="0 0 848.28391 615.2339"
    xmlns:xlink="http://www.w3.org/1999/xlink">
    <path d="M634.89862,256.95766a554.59164,554.59164,0,0,1-5.22832,71.26187c-.1145.82939-.23926,1.65873-.35424,2.488L406.03976,329.46c-.65557-.82369-1.30082-1.65726-1.926-2.50079-2.08453-2.79166-4.03825-5.66267-5.83174-8.6327-8.62038-14.3084-12.56688-31.06069-8.6121-42.61879l.07082-.1796a20.28147,20.28147,0,0,1,3.95842-6.878c9.01681-10.14979,27.24788-8.45788,43.7922-.26533-14.83916-16.24314-26.655-36.73947-27.55279-55.03482-.88028-17.84516,8.45086-30.59321,18.5716-41.42684.33209-.35814.66412-.70633.99615-1.05445.16116-.1791.332-.34819.4927-.52729,7.89635-8.256,17.10212-16.39469,30.42691-15.41018,14.61381,1.08167,30.81618,13.32235,42.1766,27.58606,11.36047,14.2537,18.90977,30.4461,26.56182,46.24911,7.66188,15.79306,15.9514,31.98965,28.24628,45.48855C540.758,253.19161,527.33168,229.2262,522.372,205.91809s-.5948-45.694,14.24655-56.67128a34.71268,34.71268,0,0,1,15.20493-6.13511c.64025-.10641,1.29065-.1928,1.95124-.26913,13.73893-1.56321,30.14281,3.18849,44.09959,14.54662,15.3703,12.50612,26.02665,31.04593,31.32878,48.64583C634.50473,223.63493,635.06974,240.57835,634.89862,256.95766Z" transform="translate(-175.85805 -142.38305)" fill="#f2f2f2"/>
    <path d="M488.81825,329.92255l-4.26947-.02385q-2.03345-1.27134-4.08612-2.51286c-.84712-.53471-1.70412-1.04952-2.56155-1.57434q-21.24279-12.97391-42.75125-24.88928Q413.661,288.997,391.956,278.17057a1.78937,1.78937,0,0,1-1.02862-2.04581.51534.51534,0,0,1,.07115-.14957c.20183-.37889.65291-.5364,1.31127-.21271,1.77484.88994,3.55993,1.77993,5.33466,2.68988q21.76425,11.01171,43.3417,23.12254,21.56257,12.10564,42.87944,25.27995c.29879.18167.598.37335.89681.555C486.11761,328.24746,487.463,329.085,488.81825,329.92255Z" transform="translate(-175.85805 -142.38305)" fill="#fff"/>
    <path d="M543.86768,330.23014l-2.64009-.01475c-.59545-.8333-1.18065-1.6666-1.7761-2.5q-20.98532-29.42769-41.96185-58.85538-34.35146-48.17766-68.68242-96.35523a1.70041,1.70041,0,0,1-.297-.58168c-.19573-.71113.32663-1.1282.99615-1.05445a2.0056,2.0056,0,0,1,1.395.88781q19.25925,27.018,38.50885,54.016,34.17263,47.9367,68.33556,95.86329c1.44865,2.02815,2.89724,4.06624,4.34589,6.09439C542.687,328.56355,543.28249,329.3969,543.86768,330.23014Z" transform="translate(-175.85805 -142.38305)" fill="#fff"/>
    <path d="M602.68425,314.89856c-.13473,4.44933-.42922,8.82776-.81381,13.16564q-.11169,1.24443-.22387,2.48878l-2.77-.01548c.08471-.82949.16943-1.65905.24389-2.48866.58532-6.26685,1.00062-12.60459,1.057-19.11439a266.65605,266.65605,0,0,0-5.24956-53.75014,334.665,334.665,0,0,0-16.25856-55.84172A383.49231,383.49231,0,0,0,552.068,144.09306a1.47569,1.47569,0,0,1-.24452-.98136c.11428-.78941,1.16541-1.02353,1.95124-.26913a2.29258,2.29258,0,0,1,.3971.50222q1.91668,3.29577,3.76342,6.61116a383.2281,383.2281,0,0,1,25.46063,55.44311,333.08069,333.08069,0,0,1,15.15748,55.9256A263.07433,263.07433,0,0,1,602.68425,314.89856Z" transform="translate(-175.85805 -142.38305)" fill="#fff"/>
    <path d="M791.57777,328.85694h-607a8.72766,8.72766,0,0,0-8.71972,8.72v411.32a8.72766,8.72766,0,0,0,8.71972,8.72h607a8.71242,8.71242,0,0,0,6.63037-3.06,2.04307,2.04307,0,0,0,.18994-.24,8.1662,8.1662,0,0,0,1.25-2.11,8.50708,8.50708,0,0,0,.65967-3.31V337.577A8.72954,8.72954,0,0,0,791.57777,328.85694Zm6.24024,420.04a6.17532,6.17532,0,0,1-1.03028,3.42,6.44578,6.44578,0,0,1-2.35986,2.12,6.1843,6.1843,0,0,1-2.8501.69h-607a6.23757,6.23757,0,0,1-6.23-6.23V337.577a6.23757,6.23757,0,0,1,6.23-6.23h607a6.23945,6.23945,0,0,1,6.24024,6.23Z" transform="translate(-175.85805 -142.38305)" fill="#3f3d56"/>
    <rect x="1.24265" y="221.4231" width="621.95676" height="2.49281" fill="#3f3d56"/>
    <circle cx="22.43155" cy="205.16998" r="7.47844" fill="#3f3d56"/>
    <circle cx="43.93206" cy="205.16998" r="7.47844" fill="#3f3d56"/>
    <circle cx="65.43257" cy="205.16998" r="7.47844" fill="#3f3d56"/>
    <path d="M644.17739,421.50889h-312a13,13,0,0,1,0-26h312a13,13,0,0,1,0,26Zm-312-24a11,11,0,0,0,0,22h312a11,11,0,0,0,0-22Z" transform="translate(-175.85805 -142.38305)" fill="#3f3d56"/>
    <path d="M358.08289,574.12671h-120a17.01917,17.01917,0,0,1-17-17v-56a17.01917,17.01917,0,0,1,17-17h120a17.01917,17.01917,0,0,1,17,17v56A17.01917,17.01917,0,0,1,358.08289,574.12671Z" transform="translate(-175.85805 -142.38305)" fill="#c66000"/>
    <path d="M548.083,574.12671h-120a17.01919,17.01919,0,0,1-17.00012-17v-56a17.01919,17.01919,0,0,1,17.00012-17h120a17.01917,17.01917,0,0,1,17,17v56A17.01917,17.01917,0,0,1,548.083,574.12671Z" transform="translate(-175.85805 -142.38305)" fill="#c66000"/>
    <path d="M738.083,574.12671h-120a17.01917,17.01917,0,0,1-17-17v-56a17.01917,17.01917,0,0,1,17-17h120a17.01917,17.01917,0,0,1,17,17v56A17.01917,17.01917,0,0,1,738.083,574.12671Z" transform="translate(-175.85805 -142.38305)" fill="#c66000"/>
    <path d="M358.08289,692.12671h-120a17.01917,17.01917,0,0,1-17-17v-56a17.01917,17.01917,0,0,1,17-17h120a17.01917,17.01917,0,0,1,17,17v56A17.01917,17.01917,0,0,1,358.08289,692.12671Z" transform="translate(-175.85805 -142.38305)" fill="#c66000"/>
    <path d="M548.083,692.12671h-120a17.01919,17.01919,0,0,1-17.00012-17v-56a17.01919,17.01919,0,0,1,17.00012-17h120a17.01917,17.01917,0,0,1,17,17v56A17.01917,17.01917,0,0,1,548.083,692.12671Z" transform="translate(-175.85805 -142.38305)" fill="#c66000"/>
    <path d="M738.083,692.12671h-120a17.01917,17.01917,0,0,1-17-17v-56a17.01917,17.01917,0,0,1,17-17h120a17.01917,17.01917,0,0,1,17,17v56A17.01917,17.01917,0,0,1,738.083,692.12671Z" transform="translate(-175.85805 -142.38305)" fill="#c66000"/>
    <path d="M1023.142,757.617h-230a1,1,0,0,1,0-2h230a1,1,0,0,1,0,2Z" transform="translate(-175.85805 -142.38305)" fill="#3f3d56"/>
</svg>