<svg xmlns="http://www.w3.org/2000/svg" data-name="Layer 1" width="848.28391" height="615.2339" viewBox="0 0 848.28391 615.2339"
    xmlns:xlink="http://www.w3.org/1999/xlink">
    <circle cx="697.11462" cy="248.74366" r="33" fill="#2f2e41"/>
    <path d="M790.30093,562.79573a10.7427,10.7427,0,0,1,6.25283-15.23974l41.81616-88.45906,19.12793,13.413-47.11861,82.73471a10.80091,10.80091,0,0,1-20.07831,7.55105Z" transform="translate(-175.85805 -142.38305)" fill="#ffb8b8"/>
    <path d="M826.13287,470.8413a4.81169,4.81169,0,0,1,.55209-3.97272l13.00137-20.38208a13.37737,13.37737,0,0,1,24.45588,10.8499l-6.54916,23.35317a4.81687,4.81687,0,0,1-6.60409,3.09631L828.78041,473.855A4.81141,4.81141,0,0,1,826.13287,470.8413Z" transform="translate(-175.85805 -142.38305)" fill="#c66000"/>
    <path d="M931.348,571.56571a10.74268,10.74268,0,0,1-7.44457-14.69442l-39.60233-89.47208,22.65457-5.706,31.80418,89.74234a10.80091,10.80091,0,0,1-7.41185,20.13012Z" transform="translate(-175.85805 -142.38305)" fill="#ffb8b8"/>
    <polygon points="766.285 591.358 754.765 595.553 733.105 553.115 750.107 546.924 766.285 591.358" fill="#ffb8b8"/>
    <path d="M923.47893,735.69332H947.1228a0,0,0,0,1,0,0v14.88687a0,0,0,0,1,0,0H908.59207a0,0,0,0,1,0,0v0A14.88686,14.88686,0,0,1,923.47893,735.69332Z" transform="translate(-374.11248 219.90765) rotate(-20.00652)" fill="#2f2e41"/>
    <path d="M910.69461,706.89767l-43.88711-76.802a4.82207,4.82207,0,0,1,.052-4.86807l19.76235-32.93708a4.81658,4.81658,0,0,1,8.66077.84148l37.36376,103.46818a4.79859,4.79859,0,0,1-2.46853,5.9897l-13.23928,6.27089a4.7736,4.7736,0,0,1-2.04386.4589A4.84031,4.84031,0,0,1,910.69461,706.89767Z" transform="translate(-175.85805 -142.38305)" fill="#2f2e41"/>
    <circle cx="694.11075" cy="260.23901" r="24.56103" fill="#ffb8b8"/>
    <path d="M835.0336,513.87352c-19.34214-42.88856.15732-66.85887,9.43874-75.17337a14.557,14.557,0,0,1,9.73013-3.72135h34.59941a14.576,14.576,0,0,1,13.03753,21.09462l-23.1296,46.25869-43.488,11.95954Z" transform="translate(-175.85805 -142.38305)" fill="#c66000"/>
    <path d="M885.65074,483.434a4.8117,4.8117,0,0,1-2.64533-3.01488l-6.92414-23.16293a13.37737,13.37737,0,0,1,24.198-11.41337l13.39047,20.22269a4.81688,4.81688,0,0,1-1.97428,7.02164l-22.03343,10.31357A4.81148,4.81148,0,0,1,885.65074,483.434Z" transform="translate(-175.85805 -142.38305)" fill="#c66000"/>
    <polygon points="687.147 602.955 674.887 602.954 669.055 555.666 687.149 555.667 687.147 602.955" fill="#ffb8b8"/>
    <path d="M666.12988,599.45141h23.64387a0,0,0,0,1,0,0v14.88687a0,0,0,0,1,0,0H651.243a0,0,0,0,1,0,0v0A14.88686,14.88686,0,0,1,666.12988,599.45141Z" fill="#2f2e41"/>
    <path d="M857.81014,727.28565l-19.62855-2.26417a4.81784,4.81784,0,0,1-4.22285-5.42l17.51831-131.89992a3.75008,3.75008,0,0,0-.07291-1.37669l-17.60768-72.64473a4.761,4.761,0,0,1,.75368-3.92624c2.73038-3.76421,12.08576-12.53656,39.91435-12.70276h.03006a4.83432,4.83432,0,0,1,4.39715,2.82655l3.7122,8.16606a3.76278,3.76278,0,0,0,1.25282,1.51259c5.10954,3.61682,29.862,23.918,15.32784,68.48852-14.28487,43.80741-32.58717,128.8549-36.11121,145.45881a4.79131,4.79131,0,0,1-4.69769,3.81438A4.92486,4.92486,0,0,1,857.81014,727.28565Z" transform="translate(-175.85805 -142.38305)" fill="#2f2e41"/>
    <path d="M895.77671,387.17325A33.40487,33.40487,0,0,1,876.686,393.0731a20.4708,20.4708,0,0,0,8.11361,3.338,67.35862,67.35862,0,0,1-27.514.15459,17.80737,17.80737,0,0,1-5.75977-1.97823,7.2892,7.2892,0,0,1-3.55521-4.75471c-.60365-3.44851,2.08348-6.58157,4.876-8.69307A35.96732,35.96732,0,0,1,883.07116,375.1c3.37627.87272,6.75853,2.34727,8.9515,5.05866s2.84258,6.8915.75322,9.68353Z" transform="translate(-175.85805 -142.38305)" fill="#2f2e41"/>
    <path d="M879.3779,370.08826c-2.8056-.93408-5.69279-1.91393-7.916-3.86357s-3.63443-5.13865-2.63514-7.92169c.96283-2.6815,3.89625-4.24792,6.73756-4.45882s5.63774.66859,8.35114,1.53748c-1.22708-1.85419-2.49474-5.44908-3.60458-9.24084-2.53233-8.65169,8.02021-16.55262,17.01128-15.90053q.39724.02881.76911.08264c9.066,1.32279,13.769,4.78121,20.10086,11.40309,7.92094,8.28379,12.06335,19.46117,14.83741,30.58174s4.403,22.56415,8.3047,33.341S951.817,426.785,961.8803,432.2706a33.98159,33.98159,0,0,0,35.25973-2.173,30.44213,30.44213,0,0,1-34.97174,34.48426c-12.992-2.09839-23.39954-12.56259-28.9584-24.49133s-7.07657-25.28067-8.47144-38.36692-2.80706-26.434-8.18513-38.44535c-2.1766-4.86121-5.38082-9.809-11.10726-10.58456a6.8902,6.8902,0,0,0-7.38673,3.95869c-2.51776,6.09372,6.09628,11.25411,3.88914,17.06135a6.39293,6.39293,0,0,1-5.69215,3.88711c-4.1636.2738-7.58409-2.11256-10.80631-4.41625C878.85854,368.47208,879.3779,370.08826,879.3779,370.08826Z" transform="translate(-175.85805 -142.38305)" fill="#2f2e41"/>
</svg>